<svg width="156" height="158" viewBox="0 0 156 158" fill="none" xmlns="http://www.w3.org/2000/svg">
<path fill-rule="evenodd" clip-rule="evenodd" d="M77.8632 67.2121C70.6325 59.4841 69.3229 41.1032 76.1443 29.6734C95.7608 -3.19483 144.291 11.0148 144.129 47.9452C144.111 51.8676 143.606 55.2669 142.507 58.5737C141.526 61.5285 139.489 65.2388 139.019 67.4128L148.712 67.5367C152.348 59.1847 154.348 52.7196 153.128 42.9653C150.094 18.7064 130.201 0.413574 102.552 2.85731C74.5417 5.33331 54.2045 34.0925 66.0125 64.377C67.0257 66.976 66.9977 67.553 70.4183 67.5934C72.8391 67.6222 75.5067 67.6739 77.8632 67.2121Z" fill="#4E897C"/>
<path fill-rule="evenodd" clip-rule="evenodd" d="M89.9062 156.335C95.2679 158.976 100.734 153.268 104.533 151.064C114.746 145.14 123.865 140.884 135.684 138.229C142.185 136.769 148.854 136.481 155.019 135.292C156.175 132.408 155.466 83.7377 155.399 82.7457L147.731 82.7388L147.457 128.152C130.02 131.484 118.272 133.43 103.278 142.711C101.213 143.989 99.957 145.051 97.6074 145.801C99.4622 142.67 113.179 133.863 117.909 131.861C127.825 127.665 133.872 126.818 145.335 124.937C146.205 122.029 146.2 77.6958 145.328 74.8082C126.922 73.581 110.684 77.2977 97.6035 89.1812C96.0659 90.5781 94.1733 92.9511 92.7617 93.6773C89.7085 91.2245 88.9875 89.3163 83.0479 85.3687C79.5476 83.0431 75.6743 81.0389 71.1553 79.2818C59.8253 74.8776 51.6636 75.1017 38.7041 74.9146C38.6388 76.1041 37.9134 122.414 39.1904 125.003C50.0187 126.559 58.4548 127.369 67.8789 131.585C72.7069 133.744 88.0632 142.136 89.0693 146.21C82.4288 143.381 80.0215 139.898 63.9268 133.806C54.834 130.365 42.3202 128.366 31.5742 128.201L31.3291 68.105L22.8994 68.1187L22.7881 135.373C29.268 136.379 36.1313 136.108 42.7227 137.175C58.3541 139.707 69.706 143.867 82.8457 151.914C84.8299 153.129 87.8998 155.346 89.9062 156.335ZM97.1816 134.532C97.3934 126.955 97.2732 119.154 97.251 111.555C97.2184 100.504 97.9666 101.15 103.964 95.5601C112.517 87.5884 121.619 84.0721 136.968 83.0894L136.952 117.847C128.299 119.176 122.137 120.647 114.796 123.788C106.094 127.511 102.562 131.592 97.1816 134.532ZM88.7939 134.178C87.4771 133.329 87.2765 132.818 85.6943 131.655C77.5396 125.66 67.5672 121.432 57.3867 119.154C44.823 116.343 47.2611 121.586 47.2773 106.118C47.2853 98.5852 47.1733 90.9571 47.3252 83.44C54.0889 82.9254 60.9496 85.0594 66.7998 86.9771C73.6949 89.2377 76.8576 91.8654 81.6123 95.5367C90.027 102.034 88.8399 103.793 88.8555 111.555C88.8691 118.502 89.3816 127.481 88.7939 134.178Z" fill="#008DD2"/>
<path fill-rule="evenodd" clip-rule="evenodd" d="M104.133 40.8768C104.135 48.2922 102.629 48.5628 110.16 48.5798C120.139 48.6029 130.975 50.9545 128.697 43.1332C127.777 39.9746 123.339 40.8034 118.859 40.808L112.449 40.8093L112.523 26.7257C112.526 22.6809 111.994 19.6497 106.981 20.7084C103.401 21.4647 104.155 25.5638 104.143 29.4582C104.131 33.2628 104.132 37.072 104.133 40.8768Z" fill="#054685"/>
<path fill-rule="evenodd" clip-rule="evenodd" d="M40.5089 65.7989L52.4413 65.836L52.6208 52.7248L40.5313 52.7381L40.5089 65.7989Z" fill="#008DD2"/>
<path fill-rule="evenodd" clip-rule="evenodd" d="M47.3634 20.4348C50.177 21.3192 56.4294 20.9492 59.515 20.6937L59.5896 8.8294L47.3428 8.77487L47.3634 20.4348Z" fill="#054685"/>
<path fill-rule="evenodd" clip-rule="evenodd" d="M40.627 39.4621L52.277 39.6337L52.5279 27.3113L40.5388 27.2095L40.627 39.4621Z" fill="#054685"/>
<path fill-rule="evenodd" clip-rule="evenodd" d="M18.968 27.6892L30.765 27.857L30.8032 15.9685L19.0144 15.952L18.968 27.6892Z" fill="#054685"/>
<path fill-rule="evenodd" clip-rule="evenodd" d="M0 37.4393L10.4757 37.6381L10.6231 28.3234C7.71293 28.2305 2.70733 27.8196 0.104268 28.6541L0 37.4393Z" fill="#008DD2"/>
<path fill-rule="evenodd" clip-rule="evenodd" d="M24.0193 47.9373L34.1994 47.977L34.2164 38.5765L24.0257 38.6166L24.0193 47.9373Z" fill="#008DD2"/>
<path fill-rule="evenodd" clip-rule="evenodd" d="M9.02026 59.8627L19.3436 59.8694L19.3924 50.7614L9.09613 50.6862L9.02026 59.8627Z" fill="#008DD2"/>
<path fill-rule="evenodd" clip-rule="evenodd" d="M31.8403 9.24128L41.0703 9.41226L41.1769 -9.53674e-06L31.8943 0.156485L31.8403 9.24128Z" fill="#054685"/>
</svg>
