<svg width="886" height="168" viewBox="0 0 886 168" fill="none" xmlns="http://www.w3.org/2000/svg">
<path fill-rule="evenodd" clip-rule="evenodd" d="M77.8632 77.2121C70.6325 69.4841 69.3229 51.1032 76.1443 39.6734C95.7608 6.80517 144.291 21.0148 144.129 57.9452C144.111 61.8676 143.606 65.2669 142.507 68.5737C141.526 71.5285 139.489 75.2388 139.019 77.4128L148.712 77.5368C152.348 69.1848 154.348 62.7196 153.128 52.9653C150.094 28.7064 130.201 10.4136 102.552 12.8573C74.5417 15.3333 54.2045 44.0925 66.0125 74.377C67.0257 76.976 66.9977 77.553 70.4183 77.5934C72.8391 77.6222 75.5067 77.674 77.8632 77.2121Z" fill="#4E897C"/>
<path d="M89.9062 166.335C95.2678 168.976 100.734 163.268 104.533 161.064C114.746 155.14 123.865 150.884 135.684 148.229C142.185 146.769 148.854 146.481 155.019 145.292C156.175 142.408 155.466 93.7376 155.399 92.7457L147.731 92.7389L147.457 138.152C130.02 141.484 118.272 143.43 103.278 152.711C101.213 153.989 99.957 155.051 97.6074 155.801C99.4622 152.67 113.179 143.863 117.909 141.861C127.825 137.665 133.872 136.818 145.335 134.937C146.205 132.029 146.2 87.6958 145.328 84.8082C126.922 83.581 110.684 87.2977 97.6035 99.1812C96.0659 100.578 94.1733 102.951 92.7617 103.677C89.7085 101.225 88.9875 99.3163 83.0479 95.3687C79.5476 93.0431 75.6743 91.0389 71.1553 89.2818C59.8253 84.8776 51.6636 85.1017 38.7041 84.9146C38.6388 86.1041 37.9134 132.414 39.1904 135.004C50.0187 136.559 58.4548 137.369 67.8789 141.585C72.7069 143.744 88.0632 152.136 89.0693 156.21C82.4288 153.381 80.0215 149.898 63.9268 143.806C54.834 140.365 42.3202 138.366 31.5742 138.201L31.3291 78.1051L22.8994 78.1187L22.7881 145.373C29.268 146.379 36.1313 146.108 42.7227 147.175C58.3541 149.707 69.706 153.867 82.8457 161.914C84.8299 163.129 87.8998 165.346 89.9062 166.335ZM97.1816 144.532C97.3934 136.955 97.2732 129.154 97.251 121.555C97.2184 110.504 97.9666 111.15 103.964 105.56C112.517 97.5884 121.619 94.0721 136.968 93.0894L136.952 127.847C128.299 129.176 122.137 130.647 114.796 133.788C106.094 137.511 102.562 141.592 97.1816 144.532ZM88.7939 144.178C87.4771 143.329 87.2765 142.818 85.6943 141.655C77.5396 135.66 67.5672 131.432 57.3867 129.154C44.823 126.343 47.2611 131.586 47.2773 116.118C47.2853 108.585 47.1733 100.957 47.3252 93.44C54.0889 92.9254 60.9496 95.0594 66.7998 96.9771C73.6949 99.2377 76.8576 101.865 81.6123 105.537C90.027 112.034 88.8399 113.793 88.8555 121.555C88.8691 128.502 89.3816 137.481 88.7939 144.178Z" fill="#008DD2"/>
<path fill-rule="evenodd" clip-rule="evenodd" d="M104.133 50.8768C104.135 58.2922 102.629 58.5628 110.16 58.5799C120.139 58.6029 130.975 60.9545 128.697 53.1332C127.777 49.9746 123.339 50.8034 118.859 50.808L112.449 50.8093L112.523 36.7257C112.526 32.6809 111.994 29.6497 106.981 30.7084C103.401 31.4647 104.155 35.5638 104.143 39.4582C104.131 43.2628 104.132 47.072 104.133 50.8768Z" fill="#054685"/>
<path fill-rule="evenodd" clip-rule="evenodd" d="M40.5089 75.7989L52.4413 75.836L52.6208 62.7248L40.5313 62.7381L40.5089 75.7989Z" fill="#008DD2"/>
<path fill-rule="evenodd" clip-rule="evenodd" d="M47.3634 30.4348C50.177 31.3192 56.4294 30.9492 59.515 30.6937L59.5896 18.8294L47.3428 18.7749L47.3634 30.4348Z" fill="#054685"/>
<path fill-rule="evenodd" clip-rule="evenodd" d="M40.627 49.4621L52.277 49.6337L52.5279 37.3113L40.5388 37.2096L40.627 49.4621Z" fill="#054685"/>
<path fill-rule="evenodd" clip-rule="evenodd" d="M18.968 37.6892L30.765 37.857L30.8032 25.9685L19.0144 25.952L18.968 37.6892Z" fill="#054685"/>
<path fill-rule="evenodd" clip-rule="evenodd" d="M0 47.4393L10.4757 47.6381L10.6231 38.3234C7.71293 38.2305 2.70733 37.8196 0.104268 38.6541L0 47.4393Z" fill="#008DD2"/>
<path fill-rule="evenodd" clip-rule="evenodd" d="M24.0193 57.9373L34.1994 57.977L34.2164 48.5765L24.0257 48.6166L24.0193 57.9373Z" fill="#008DD2"/>
<path fill-rule="evenodd" clip-rule="evenodd" d="M9.02026 69.8627L19.3436 69.8694L19.3924 60.7614L9.09613 60.6862L9.02026 69.8627Z" fill="#008DD2"/>
<path fill-rule="evenodd" clip-rule="evenodd" d="M31.8403 19.2413L41.0703 19.4123L41.1769 10L31.8943 10.1565L31.8403 19.2413Z" fill="#054685"/>
<path d="M178.14 140.509V27.0548H219.688C227.739 27.0548 234.405 28.3843 239.687 31.0434C244.968 33.6655 248.919 37.2295 251.542 41.7352C254.164 46.2039 255.475 51.2451 255.475 56.8587C255.475 61.586 254.607 65.5746 252.871 68.8246C251.135 72.0377 248.809 74.6229 245.891 76.5803C243.01 78.5008 239.834 79.9042 236.363 80.7906V81.8985C240.13 82.0832 243.804 83.3019 247.387 85.5548C251.006 87.7707 253.998 90.9283 256.361 95.0278C258.725 99.1272 259.907 104.113 259.907 109.985C259.907 115.783 258.54 120.991 255.807 125.607C253.111 130.187 248.938 133.825 243.287 136.521C237.637 139.18 230.417 140.509 221.627 140.509H178.14ZM195.258 125.829H219.965C228.164 125.829 234.036 124.241 237.581 121.065C241.127 117.889 242.9 113.918 242.9 109.154C242.9 105.572 241.995 102.285 240.185 99.2934C238.375 96.3019 235.79 93.9198 232.429 92.1471C229.106 90.3744 225.154 89.488 220.574 89.488H195.258V125.829ZM195.258 76.1371H218.192C222.033 76.1371 225.486 75.3985 228.552 73.9212C231.654 72.444 234.11 70.3758 235.919 67.7167C237.766 65.0207 238.689 61.8445 238.689 58.1883C238.689 53.4979 237.046 49.5647 233.759 46.3886C230.472 43.2124 225.431 41.6244 218.635 41.6244H195.258V76.1371ZM278.88 140.509V55.4184H295.444V140.509H278.88ZM287.245 42.2891C284.365 42.2891 281.89 41.3289 279.822 39.4084C277.791 37.4511 276.775 35.1244 276.775 32.4283C276.775 29.6954 277.791 27.3687 279.822 25.4482C281.89 23.4908 284.365 22.5121 287.245 22.5121C290.126 22.5121 292.582 23.4908 294.613 25.4482C296.682 27.3687 297.716 29.6954 297.716 32.4283C297.716 35.1244 296.682 37.4511 294.613 39.4084C292.582 41.3289 290.126 42.2891 287.245 42.2891ZM334.292 27.0548V140.509H317.728V27.0548H334.292ZM356.576 140.509V55.4184H373.14V140.509H356.576ZM364.941 42.2891C362.06 42.2891 359.586 41.3289 357.518 39.4084C355.486 37.4511 354.471 35.1244 354.471 32.4283C354.471 29.6954 355.486 27.3687 357.518 25.4482C359.586 23.4908 362.06 22.5121 364.941 22.5121C367.821 22.5121 370.277 23.4908 372.309 25.4482C374.377 27.3687 375.411 29.6954 375.411 32.4283C375.411 35.1244 374.377 37.4511 372.309 39.4084C370.277 41.3289 367.821 42.2891 364.941 42.2891ZM395.423 140.509V55.4184H411.323V69.2678H412.375C414.148 64.5775 417.047 60.9212 421.073 58.2991C425.098 55.64 429.918 54.3104 435.531 54.3104C441.219 54.3104 445.983 55.64 449.824 58.2991C453.702 60.9582 456.564 64.6144 458.411 69.2678H459.297C461.328 64.7252 464.56 61.1059 468.992 58.4099C473.423 55.6769 478.705 54.3104 484.835 54.3104C492.554 54.3104 498.851 56.7295 503.726 61.5675C508.638 66.4056 511.094 73.6996 511.094 83.4496V140.509H494.53V85.0008C494.53 79.2394 492.96 75.0661 489.821 72.4809C486.682 69.8957 482.933 68.6031 478.575 68.6031C473.183 68.6031 468.992 70.265 466 73.5888C463.009 76.8758 461.513 81.1045 461.513 86.2749V140.509H445.004V83.9482C445.004 79.3317 443.564 75.6201 440.683 72.8133C437.803 70.0065 434.054 68.6031 429.438 68.6031C426.298 68.6031 423.399 69.434 420.74 71.0959C418.118 72.7209 415.994 74.9923 414.369 77.9099C412.781 80.8275 411.987 84.2067 411.987 88.0477V140.509H395.423ZM521.869 41.7906V27.0548H609.674V41.7906H574.275V140.509H557.212V41.7906H521.869ZM627.748 140.509V55.4184H644.312V140.509H627.748ZM636.113 42.2891C633.232 42.2891 630.758 41.3289 628.689 39.4084C626.658 37.4511 625.643 35.1244 625.643 32.4283C625.643 29.6954 626.658 27.3687 628.689 25.4482C630.758 23.4908 633.232 22.5121 636.113 22.5121C638.993 22.5121 641.449 23.4908 643.481 25.4482C645.549 27.3687 646.583 29.6954 646.583 32.4283C646.583 35.1244 645.549 37.4511 643.481 39.4084C641.449 41.3289 638.993 42.2891 636.113 42.2891ZM666.595 140.509V55.4184H682.494V69.2678H683.547C685.32 64.5775 688.219 60.9212 692.244 58.2991C696.27 55.64 701.09 54.3104 706.703 54.3104C712.391 54.3104 717.155 55.64 720.996 58.2991C724.874 60.9582 727.736 64.6144 729.582 69.2678H730.469C732.5 64.7252 735.732 61.1059 740.163 58.4099C744.595 55.6769 749.877 54.3104 756.007 54.3104C763.726 54.3104 770.023 56.7295 774.898 61.5675C779.81 66.4056 782.266 73.6996 782.266 83.4496V140.509H765.702V85.0008C765.702 79.2394 764.132 75.0661 760.993 72.4809C757.854 69.8957 754.105 68.6031 749.747 68.6031C744.355 68.6031 740.163 70.265 737.172 73.5888C734.181 76.8758 732.685 81.1045 732.685 86.2749V140.509H716.176V83.9482C716.176 79.3317 714.736 75.6201 711.855 72.8133C708.975 70.0065 705.226 68.6031 700.609 68.6031C697.47 68.6031 694.571 69.434 691.912 71.0959C689.29 72.7209 687.166 74.9923 685.541 77.9099C683.953 80.8275 683.159 84.2067 683.159 88.0477V140.509H666.595ZM841.14 142.227C832.756 142.227 825.536 140.435 819.479 136.853C813.459 133.234 808.806 128.156 805.519 121.619C802.269 115.045 800.644 107.345 800.644 98.5178C800.644 89.8019 802.269 82.1201 805.519 75.4724C808.806 68.8246 813.385 63.6357 819.258 59.9056C825.167 56.1755 832.073 54.3104 839.976 54.3104C844.777 54.3104 849.431 55.1045 853.937 56.6925C858.442 58.2806 862.486 60.7735 866.069 64.1712C869.651 67.569 872.476 71.9823 874.544 77.4113C876.613 82.8033 877.647 89.3587 877.647 97.0775V102.95H810.006V90.5406H861.415C861.415 86.1826 860.529 82.3232 858.756 78.9624C856.983 75.5647 854.491 72.8871 851.277 70.9298C848.101 68.9724 844.371 67.9937 840.087 67.9937C835.434 67.9937 831.371 69.1386 827.9 71.4283C824.465 73.6812 821.806 76.6357 819.922 80.292C818.076 83.9113 817.152 87.8445 817.152 92.0917V101.786C817.152 107.474 818.15 112.312 820.144 116.3C822.175 120.289 825 123.336 828.62 125.441C832.239 127.509 836.468 128.543 841.306 128.543C844.445 128.543 847.307 128.1 849.893 127.214C852.478 126.291 854.712 124.924 856.596 123.114C858.479 121.305 859.919 119.07 860.917 116.411L876.594 119.237C875.339 123.853 873.086 127.897 869.836 131.369C866.623 134.803 862.579 137.481 857.704 139.401C852.866 141.285 847.344 142.227 841.14 142.227Z" fill="url(#paint0_linear_21_18)"/>
<defs>
<linearGradient id="paint0_linear_21_18" x1="165.675" y1="83.5093" x2="885.675" y2="83.5093" gradientUnits="userSpaceOnUse">
<stop offset="0.48" stop-color="#054685"/>
<stop offset="0.5" stop-color="#008DD2"/>
</linearGradient>
</defs>
</svg>
